<?xml version="1.0" encoding="UTF-8"?><svg id="uuid-11a47033-bfd4-48ea-947e-72334ed105f6" xmlns="http://www.w3.org/2000/svg" width="200" height="200" viewBox="0 0 200 200"><defs><style>.uuid-74b524df-e37c-4a4b-a274-c56958cc92a5{fill:#b7133a;}.uuid-74b524df-e37c-4a4b-a274-c56958cc92a5,.uuid-479cc871-2187-4eac-9381-2cc668444669,.uuid-b6d803fc-6cd6-4b4f-856f-48d730e92ca0,.uuid-0e89ac83-03d5-4768-b107-ba79f8ebd621,.uuid-d6dda6de-7b90-4f36-b44a-02175eba41e9,.uuid-97af15fb-78a7-44bc-9b5e-344a936bc3fd{stroke-width:0px;}.uuid-b6d803fc-6cd6-4b4f-856f-48d730e92ca0{fill:#f2f2f0;}.uuid-0e89ac83-03d5-4768-b107-ba79f8ebd621{fill:#15487a;}.uuid-d6dda6de-7b90-4f36-b44a-02175eba41e9{fill:#aadce1;}.uuid-25b5f4d4-6366-4219-81e9-2fc17b6ae33f{fill:none;stroke:#000;stroke-linecap:round;stroke-width:2px;}.uuid-97af15fb-78a7-44bc-9b5e-344a936bc3fd{fill:#f26d6d;}</style></defs><rect class="uuid-b6d803fc-6cd6-4b4f-856f-48d730e92ca0" x="87.01" y="157.67" width="27.18" height="1.65"/><path class="uuid-479cc871-2187-4eac-9381-2cc668444669" d="M175.21,72.27H25.01v87.05h59.99v-2.65c0-.55.45-1,1-1h4.76v-27.54c0-.55.45-1,1-1h16.78c.55,0,1,.45,1,1v27.54h5.63c.55,0,1,.45,1,1v2.65h59.02v-87.05h.02Z"/><rect class="uuid-97af15fb-78a7-44bc-9b5e-344a936bc3fd" x="92.77" y="129.13" width="14.78" height="26.54"/><path class="uuid-97af15fb-78a7-44bc-9b5e-344a936bc3fd" d="M102.33,145.16h-4.15c-.55,0-1-.45-1-1s.45-1,1-1h4.15c.55,0,1,.45,1,1s-.45,1-1,1Z"/><polygon class="uuid-74b524df-e37c-4a4b-a274-c56958cc92a5" points="169.76 40.68 31.43 40.68 22.06 70.27 179.13 70.27 169.76 40.68"/><path class="uuid-479cc871-2187-4eac-9381-2cc668444669" d="M177.21,72.27h3.29c.32,0,.62-.15.81-.41s.24-.59.15-.89l-10-31.59c-.13-.42-.52-.7-.95-.7H30.7c-.44,0-.82.28-.95.7l-10,31.59c-.1.3-.04.64.15.89.19.26.49.41.81.41h2.32v88.05c0,.55.45,1,1,1h152.11c.55,0,1-.45,1-1l.08-88.05h0Z"/><rect class="uuid-b6d803fc-6cd6-4b4f-856f-48d730e92ca0" x="87.01" y="157.67" width="27.18" height="1.65"/><rect class="uuid-97af15fb-78a7-44bc-9b5e-344a936bc3fd" x="92.77" y="129.13" width="14.78" height="26.54"/><path class="uuid-b6d803fc-6cd6-4b4f-856f-48d730e92ca0" d="M175.21,159.32h-59.02v-2.65c0-.55-.45-1-1-1h-5.63v-27.54c0-.55-.45-1-1-1h-16.78c-.55,0-1,.45-1,1v27.54h-4.76c-.55,0-1,.45-1,1v2.65H25.01v-87.05h150.19v87.05h.01Z"/><polygon class="uuid-74b524df-e37c-4a4b-a274-c56958cc92a5" points="169.76 40.68 179.13 70.27 22.06 70.27 31.43 40.68 169.76 40.68"/><path class="uuid-479cc871-2187-4eac-9381-2cc668444669" d="M98.18,145.16h4.15c.55,0,1-.45,1-1s-.45-1-1-1h-4.15c-.55,0-1,.45-1,1s.45,1,1,1Z"/><path class="uuid-b6d803fc-6cd6-4b4f-856f-48d730e92ca0" d="M112.07,111.18c0,.55-.45,1-1,1h-20.94c-.55,0-1-.45-1-1v-3.1c0-.55.45-1,1-1h.78v-22.48c0-.55.45-1,1-1h17.11c.55,0,1,.45,1,1v22.48h1.04c.55,0,1,.45,1,1v3.1h.01Z"/><path class="uuid-479cc871-2187-4eac-9381-2cc668444669" d="M166.04,111.18c0,.55-.45,1-1,1h-37.79c-.55,0-1-.45-1-1v-3.1c0-.55.45-1,1-1h.78v-22.48c0-.55.45-1,1-1h34.23c.55,0,1,.45,1,1v22.48h.78c.55,0,1,.45,1,1v3.1Z"/><rect class="uuid-479cc871-2187-4eac-9381-2cc668444669" x="130.03" y="92.4" width="15.12" height="14.69"/><rect class="uuid-479cc871-2187-4eac-9381-2cc668444669" x="147.14" y="92.4" width="15.11" height="14.69"/><rect class="uuid-479cc871-2187-4eac-9381-2cc668444669" x="130.03" y="85.61" width="32.23" height="4.79"/><rect class="uuid-b6d803fc-6cd6-4b4f-856f-48d730e92ca0" x="128.25" y="109.09" width="35.79" height="1.1"/><rect class="uuid-d6dda6de-7b90-4f36-b44a-02175eba41e9" x="92.91" y="92.4" width="15.11" height="14.69"/><rect class="uuid-d6dda6de-7b90-4f36-b44a-02175eba41e9" x="92.91" y="85.61" width="15.11" height="4.79"/><rect class="uuid-b6d803fc-6cd6-4b4f-856f-48d730e92ca0" x="91.13" y="109.09" width="18.94" height="1.1"/><path class="uuid-479cc871-2187-4eac-9381-2cc668444669" d="M165.04,107.09h-.78v-22.48c0-.55-.45-1-1-1h-34.23c-.55,0-1,.45-1,1v22.48h-.78c-.55,0-1,.45-1,1v3.1c0,.55.45,1,1,1h37.79c.55,0,1-.45,1-1v-3.1c0-.55-.45-1-1-1h0Z"/><rect class="uuid-b6d803fc-6cd6-4b4f-856f-48d730e92ca0" x="128.25" y="109.09" width="35.79" height="1.1"/><path class="uuid-b6d803fc-6cd6-4b4f-856f-48d730e92ca0" d="M73.59,111.18c0,.55-.45,1-1,1h-37.79c-.55,0-1-.45-1-1v-3.1c0-.55.45-1,1-1h.78v-22.48c0-.55.45-1,1-1h34.23c.55,0,1,.45,1,1v22.48h.78c.55,0,1,.45,1,1v3.1Z"/><rect class="uuid-d6dda6de-7b90-4f36-b44a-02175eba41e9" x="37.58" y="92.4" width="15.12" height="14.69"/><rect class="uuid-d6dda6de-7b90-4f36-b44a-02175eba41e9" x="54.7" y="92.4" width="15.11" height="14.69"/><rect class="uuid-d6dda6de-7b90-4f36-b44a-02175eba41e9" x="37.58" y="85.61" width="32.23" height="4.79"/><rect class="uuid-b6d803fc-6cd6-4b4f-856f-48d730e92ca0" x="35.8" y="109.09" width="35.79" height="1.1"/><path class="uuid-479cc871-2187-4eac-9381-2cc668444669" d="M72.59,107.09h-.78v-22.48c0-.55-.45-1-1-1h-34.23c-.55,0-1,.45-1,1v22.48h-.78c-.55,0-1,.45-1,1v3.1c0,.55.45,1,1,1h37.79c.55,0,1-.45,1-1v-3.1c0-.55-.45-1-1-1Z"/><rect class="uuid-b6d803fc-6cd6-4b4f-856f-48d730e92ca0" x="35.8" y="109.09" width="35.79" height="1.1"/><path class="uuid-479cc871-2187-4eac-9381-2cc668444669" d="M111.07,107.09h-1.04v-22.48c0-.55-.45-1-1-1h-17.11c-.55,0-1,.45-1,1v22.48h-.78c-.55,0-1,.45-1,1v3.1c0,.55.45,1,1,1h20.94c.55,0,1-.45,1-1v-3.1c0-.55-.45-1-1-1h-.01Z"/><rect class="uuid-b6d803fc-6cd6-4b4f-856f-48d730e92ca0" x="91.13" y="109.09" width="18.94" height="1.1"/><rect class="uuid-d6dda6de-7b90-4f36-b44a-02175eba41e9" x="130.03" y="92.4" width="15.12" height="14.69"/><rect class="uuid-d6dda6de-7b90-4f36-b44a-02175eba41e9" x="147.14" y="92.4" width="15.11" height="14.69"/><rect class="uuid-d6dda6de-7b90-4f36-b44a-02175eba41e9" x="130.03" y="85.61" width="32.23" height="4.79"/><rect class="uuid-d6dda6de-7b90-4f36-b44a-02175eba41e9" x="37.58" y="92.4" width="15.12" height="14.69"/><rect class="uuid-d6dda6de-7b90-4f36-b44a-02175eba41e9" x="54.7" y="92.4" width="15.11" height="14.69"/><rect class="uuid-d6dda6de-7b90-4f36-b44a-02175eba41e9" x="37.58" y="85.61" width="32.23" height="4.79"/><rect class="uuid-d6dda6de-7b90-4f36-b44a-02175eba41e9" x="92.91" y="92.4" width="15.11" height="14.69"/><rect class="uuid-d6dda6de-7b90-4f36-b44a-02175eba41e9" x="92.91" y="85.61" width="15.11" height="4.79"/><path class="uuid-b6d803fc-6cd6-4b4f-856f-48d730e92ca0" d="M166.04,150.26c0,.55-.45,1-1,1h-37.79c-.55,0-1-.45-1-1v-3.1c0-.55.45-1,1-1h.78v-22.48c0-.55.45-1,1-1h34.23c.55,0,1,.45,1,1v22.48h.78c.55,0,1,.45,1,1v3.1Z"/><rect class="uuid-d6dda6de-7b90-4f36-b44a-02175eba41e9" x="130.03" y="124.69" width="32.23" height="4.79"/><rect class="uuid-d6dda6de-7b90-4f36-b44a-02175eba41e9" x="147.14" y="131.48" width="15.11" height="14.69"/><rect class="uuid-d6dda6de-7b90-4f36-b44a-02175eba41e9" x="130.03" y="131.48" width="15.12" height="14.69"/><rect class="uuid-b6d803fc-6cd6-4b4f-856f-48d730e92ca0" x="128.25" y="148.17" width="35.79" height="1.1"/><path class="uuid-479cc871-2187-4eac-9381-2cc668444669" d="M165.04,146.17h-.78v-22.48c0-.55-.45-1-1-1h-34.23c-.55,0-1,.45-1,1v22.48h-.78c-.55,0-1,.45-1,1v3.1c0,.55.45,1,1,1h37.79c.55,0,1-.45,1-1v-3.1c0-.55-.45-1-1-1h0Z"/><path class="uuid-b6d803fc-6cd6-4b4f-856f-48d730e92ca0" d="M73.49,150.26c0,.55-.45,1-1,1h-37.79c-.55,0-1-.45-1-1v-3.1c0-.55.45-1,1-1h.78v-22.48c0-.55.45-1,1-1h34.23c.55,0,1,.45,1,1v22.48h.78c.55,0,1,.45,1,1,0,0,0,3.1,0,3.1Z"/><rect class="uuid-d6dda6de-7b90-4f36-b44a-02175eba41e9" x="37.47" y="124.69" width="32.23" height="4.79"/><rect class="uuid-d6dda6de-7b90-4f36-b44a-02175eba41e9" x="54.59" y="131.48" width="15.11" height="14.69"/><rect class="uuid-d6dda6de-7b90-4f36-b44a-02175eba41e9" x="37.47" y="131.48" width="15.12" height="14.69"/><rect class="uuid-b6d803fc-6cd6-4b4f-856f-48d730e92ca0" x="35.69" y="148.17" width="35.79" height="1.1"/><path class="uuid-479cc871-2187-4eac-9381-2cc668444669" d="M72.49,146.17h-.78v-22.48c0-.55-.45-1-1-1h-34.23c-.55,0-1,.45-1,1v22.48h-.78c-.55,0-1,.45-1,1v3.1c0,.55.45,1,1,1h37.79c.55,0,1-.45,1-1v-3.1c0-.55-.45-1-1-1Z"/><rect class="uuid-d6dda6de-7b90-4f36-b44a-02175eba41e9" x="130.03" y="131.48" width="15.12" height="14.69"/><rect class="uuid-d6dda6de-7b90-4f36-b44a-02175eba41e9" x="147.14" y="131.48" width="15.11" height="14.69"/><rect class="uuid-d6dda6de-7b90-4f36-b44a-02175eba41e9" x="130.03" y="124.69" width="32.23" height="4.79"/><rect class="uuid-b6d803fc-6cd6-4b4f-856f-48d730e92ca0" x="128.25" y="148.17" width="35.79" height="1.1"/><rect class="uuid-d6dda6de-7b90-4f36-b44a-02175eba41e9" x="37.47" y="131.48" width="15.12" height="14.69"/><rect class="uuid-d6dda6de-7b90-4f36-b44a-02175eba41e9" x="54.59" y="131.48" width="15.11" height="14.69"/><rect class="uuid-d6dda6de-7b90-4f36-b44a-02175eba41e9" x="37.47" y="124.69" width="32.23" height="4.79"/><rect class="uuid-b6d803fc-6cd6-4b4f-856f-48d730e92ca0" x="35.69" y="148.17" width="35.79" height="1.1"/><line class="uuid-25b5f4d4-6366-4219-81e9-2fc17b6ae33f" x1="57.65" y1="62.61" x2="56.59" y2="67.44"/><line class="uuid-25b5f4d4-6366-4219-81e9-2fc17b6ae33f" x1="100.05" y1="62.62" x2="100.01" y2="67.44"/><line class="uuid-25b5f4d4-6366-4219-81e9-2fc17b6ae33f" x1="142.63" y1="62.62" x2="143.61" y2="67.44"/><path class="uuid-479cc871-2187-4eac-9381-2cc668444669" d="M58.04,44.25c-.69,0-1.39.53-1.55,1.18l-4.65,18.9c-.16.66.34,1.19,1.11,1.19h94.15c.78,0,1.28-.52,1.13-1.18l-4.32-18.84c-.15-.65-.83-1.18-1.53-1.18,0,0-84.34-.07-84.34-.07Z"/><polygon class="uuid-0e89ac83-03d5-4768-b107-ba79f8ebd621" points="65.56 53.96 56.3 53.96 58.16 46.08 67.04 46.09 65.56 53.96"/><polygon class="uuid-0e89ac83-03d5-4768-b107-ba79f8ebd621" points="76.76 53.97 67.5 53.96 68.9 46.09 77.79 46.1 76.76 53.97"/><polygon class="uuid-0e89ac83-03d5-4768-b107-ba79f8ebd621" points="87.96 53.97 78.7 53.97 79.65 46.1 88.53 46.11 87.96 53.97"/><polygon class="uuid-0e89ac83-03d5-4768-b107-ba79f8ebd621" points="99.16 53.98 89.9 53.97 90.39 46.11 99.27 46.11 99.16 53.98"/><polygon class="uuid-0e89ac83-03d5-4768-b107-ba79f8ebd621" points="110.36 53.98 101.1 53.98 101.13 46.12 110.01 46.12 110.36 53.98"/><polygon class="uuid-0e89ac83-03d5-4768-b107-ba79f8ebd621" points="121.56 53.99 112.3 53.98 111.87 46.12 120.75 46.13 121.56 53.99"/><polygon class="uuid-0e89ac83-03d5-4768-b107-ba79f8ebd621" points="63.73 63.68 54 63.68 55.86 55.81 65.21 55.81 63.73 63.68"/><polygon class="uuid-0e89ac83-03d5-4768-b107-ba79f8ebd621" points="75.5 63.68 65.77 63.68 67.17 55.81 76.52 55.81 75.5 63.68"/><polygon class="uuid-0e89ac83-03d5-4768-b107-ba79f8ebd621" points="87.26 63.68 77.53 63.68 78.48 55.81 87.83 55.82 87.26 63.68"/><polygon class="uuid-0e89ac83-03d5-4768-b107-ba79f8ebd621" points="99.03 63.68 89.3 63.68 89.79 55.82 99.14 55.82 99.03 63.68"/><polygon class="uuid-0e89ac83-03d5-4768-b107-ba79f8ebd621" points="110.79 63.69 101.06 63.68 101.09 55.82 110.44 55.83 110.79 63.69"/><polygon class="uuid-0e89ac83-03d5-4768-b107-ba79f8ebd621" points="122.56 63.69 112.83 63.69 112.4 55.83 121.75 55.83 122.56 63.69"/><polygon class="uuid-0e89ac83-03d5-4768-b107-ba79f8ebd621" points="132.74 53.99 123.48 53.99 122.59 46.13 131.47 46.14 132.74 53.99"/><polygon class="uuid-0e89ac83-03d5-4768-b107-ba79f8ebd621" points="143.94 54 134.68 53.99 133.33 46.14 142.22 46.14 143.94 54"/><polygon class="uuid-0e89ac83-03d5-4768-b107-ba79f8ebd621" points="134.3 63.69 124.57 63.69 123.68 55.83 133.03 55.83 134.3 63.69"/><polygon class="uuid-0e89ac83-03d5-4768-b107-ba79f8ebd621" points="146.06 63.69 136.34 63.69 134.99 55.84 144.34 55.84 146.06 63.69"/></svg>