<?xml version="1.0" encoding="UTF-8"?><svg id="uuid-097ed3cf-360d-4464-8ae0-c9c0aee18657" xmlns="http://www.w3.org/2000/svg" width="200" height="200" viewBox="0 0 200 200"><defs><style>.uuid-68bf70e8-e568-46a9-8269-b0d921d75d15{fill:#b7133a;}.uuid-68bf70e8-e568-46a9-8269-b0d921d75d15,.uuid-001f6ee1-657f-4ffa-9e40-921331c15280,.uuid-0b0e1f73-58dc-434a-97df-42cb34ba530f,.uuid-1682be8f-2651-4879-860a-7e9d873eae81,.uuid-87bb114a-d945-40bc-bbf1-d15433101cff,.uuid-d34713a6-679f-489b-a95c-4a60ba9d951d{stroke-width:0px;}.uuid-0b0e1f73-58dc-434a-97df-42cb34ba530f{fill:#f2f2f0;}.uuid-1682be8f-2651-4879-860a-7e9d873eae81{fill:#15487a;}.uuid-87bb114a-d945-40bc-bbf1-d15433101cff{fill:#aadce1;}.uuid-005d082e-a9f4-465f-b5d7-44309020881e{fill:none;stroke:#000;stroke-linecap:round;stroke-width:2px;}.uuid-d34713a6-679f-489b-a95c-4a60ba9d951d{fill:#f26d6d;}</style></defs><rect class="uuid-0b0e1f73-58dc-434a-97df-42cb34ba530f" x="65.28" y="157.67" width="27.18" height="1.65"/><path class="uuid-0b0e1f73-58dc-434a-97df-42cb34ba530f" d="M148.08,72.27H53.39v87.05h9.88v-2.65c0-.55.45-1,1-1h4.76v-27.54c0-.55.45-1,1-1h16.78c.55,0,1,.45,1,1v27.54h5.63c.55,0,1,.45,1,1v2.65h53.63v-87.05ZM88.88,111.18c0,.55-.45,1-1,1h-20.94c-.55,0-1-.45-1-1v-3.1c0-.55.45-1,1-1h.78v-22.48c0-.55.45-1,1-1h17.11c.55,0,1,.45,1,1v22.48h1.04c.55,0,1,.45,1,1v3.1ZM138.91,150.26c0,.55-.45,1-1,1h-37.79c-.55,0-1-.45-1-1v-3.1c0-.55.45-1,1-1h.78v-22.48c0-.55.45-1,1-1h34.23c.55,0,1,.45,1,1v22.48h.78c.55,0,1,.45,1,1v3.1ZM138.91,111.18c0,.55-.45,1-1,1h-37.79c-.55,0-1-.45-1-1v-3.1c0-.55.45-1,1-1h.78v-22.48c0-.55.45-1,1-1h34.23c.55,0,1,.45,1,1v22.48h.78c.55,0,1,.45,1,1v3.1Z"/><rect class="uuid-87bb114a-d945-40bc-bbf1-d15433101cff" x="102.9" y="124.69" width="32.23" height="4.79"/><rect class="uuid-87bb114a-d945-40bc-bbf1-d15433101cff" x="120.02" y="131.48" width="15.11" height="14.69"/><rect class="uuid-87bb114a-d945-40bc-bbf1-d15433101cff" x="102.9" y="131.48" width="15.12" height="14.69"/><rect class="uuid-0b0e1f73-58dc-434a-97df-42cb34ba530f" x="101.12" y="148.17" width="35.79" height="1.1"/><rect class="uuid-87bb114a-d945-40bc-bbf1-d15433101cff" x="102.9" y="92.4" width="15.12" height="14.69"/><rect class="uuid-87bb114a-d945-40bc-bbf1-d15433101cff" x="120.02" y="92.4" width="15.11" height="14.69"/><rect class="uuid-87bb114a-d945-40bc-bbf1-d15433101cff" x="102.9" y="85.61" width="32.23" height="4.79"/><rect class="uuid-0b0e1f73-58dc-434a-97df-42cb34ba530f" x="101.12" y="109.09" width="35.79" height="1.1"/><rect class="uuid-87bb114a-d945-40bc-bbf1-d15433101cff" x="69.72" y="92.4" width="15.11" height="14.69"/><rect class="uuid-87bb114a-d945-40bc-bbf1-d15433101cff" x="69.72" y="85.61" width="15.11" height="4.79"/><rect class="uuid-0b0e1f73-58dc-434a-97df-42cb34ba530f" x="67.94" y="109.09" width="18.94" height="1.1"/><path class="uuid-d34713a6-679f-489b-a95c-4a60ba9d951d" d="M85.82,129.13h-14.78v26.54h14.78v-26.54ZM80.6,145.16h-4.15c-.55,0-1-.45-1-1s.45-1,1-1h4.15c.55,0,1,.45,1,1s-.45,1-1,1Z"/><path class="uuid-68bf70e8-e568-46a9-8269-b0d921d75d15" d="M142.63,40.68H59.81l-9.37,29.59h101.56l-9.37-29.59Z"/><path class="uuid-001f6ee1-657f-4ffa-9e40-921331c15280" d="M137.91,146.17h-.78v-22.48c0-.55-.45-1-1-1h-34.23c-.55,0-1,.45-1,1v22.48h-.78c-.55,0-1,.45-1,1v3.1c0,.55.45,1,1,1h37.79c.55,0,1-.45,1-1v-3.1c0-.55-.45-1-1-1ZM102.9,131.48h15.12v14.69h-15.12v-14.69ZM135.13,146.17h-15.11v-14.69h15.11v14.69ZM102.9,124.69h32.23v4.79h-32.23v-4.79ZM101.12,148.17h35.79v1.1h-35.79v-1.1Z"/><path class="uuid-001f6ee1-657f-4ffa-9e40-921331c15280" d="M137.91,107.09h-.78v-22.48c0-.55-.45-1-1-1h-34.23c-.55,0-1,.45-1,1v22.48h-.78c-.55,0-1,.45-1,1v3.1c0,.55.45,1,1,1h37.79c.55,0,1-.45,1-1v-3.1c0-.55-.45-1-1-1ZM102.9,92.4h15.12v14.69h-15.12v-14.69ZM136.91,109.09v1.1h-35.79v-1.1h35.79ZM135.13,107.09h-15.11v-14.69h15.11v14.69ZM102.9,85.61h32.23v4.79h-32.23v-4.79Z"/><path class="uuid-001f6ee1-657f-4ffa-9e40-921331c15280" d="M87.88,107.09h-1.04v-22.48c0-.55-.45-1-1-1h-17.11c-.55,0-1,.45-1,1v22.48h-.78c-.55,0-1,.45-1,1v3.1c0,.55.45,1,1,1h20.94c.55,0,1-.45,1-1v-3.1c0-.55-.45-1-1-1ZM69.72,92.4h15.11v14.69h-15.11v-14.69ZM69.72,85.61h15.11v4.79h-15.11v-4.79ZM86.88,110.18h-18.94v-1.1h18.94v1.1Z"/><path class="uuid-001f6ee1-657f-4ffa-9e40-921331c15280" d="M150.08,72.27h3.29c.32,0,.62-.15.81-.41.19-.26.24-.59.15-.89l-10-31.59c-.13-.42-.52-.7-.95-.7H59.08c-.44,0-.82.28-.95.7l-10,31.59c-.1.3-.04.64.15.89.19.26.49.41.81.41h2.32v88.05c0,.55.45,1,1,1h96.61c.55,0,1-.45,1-1l.08-88.05ZM65.28,159.32v-1.65h27.18v1.65h-27.18ZM85.82,155.67h-14.78v-26.54h14.78v26.54ZM148.08,159.32h-53.63v-2.65c0-.55-.45-1-1-1h-5.63v-27.54c0-.55-.45-1-1-1h-16.78c-.55,0-1,.45-1,1v27.54h-4.76c-.55,0-1,.45-1,1v2.65h-9.88v-87.05h94.69v87.05ZM142.63,40.68l9.37,29.59H50.44l9.37-29.59h82.83Z"/><path class="uuid-001f6ee1-657f-4ffa-9e40-921331c15280" d="M76.45,145.16h4.15c.55,0,1-.45,1-1s-.45-1-1-1h-4.15c-.55,0-1,.45-1,1s.45,1,1,1Z"/><line class="uuid-005d082e-a9f4-465f-b5d7-44309020881e" x1="70.68" y1="62.29" x2="69.83" y2="67.09"/><line class="uuid-005d082e-a9f4-465f-b5d7-44309020881e" x1="101.27" y1="62.28" x2="101.27" y2="67.09"/><line class="uuid-005d082e-a9f4-465f-b5d7-44309020881e" x1="131.46" y1="62.27" x2="132.29" y2="67.09"/><path class="uuid-001f6ee1-657f-4ffa-9e40-921331c15280" d="M70.37,44.02c-.68,0-1.34.53-1.48,1.18l-3.93,18.78c-.14.65.38,1.18,1.15,1.18h70.26c.77,0,1.29-.54,1.16-1.19l-3.87-18.87c-.13-.65-.8-1.18-1.48-1.18l-61.81.11Z"/><polygon class="uuid-1682be8f-2651-4879-860a-7e9d873eae81" points="78.17 53.66 69.01 53.67 70.56 45.85 79.28 45.83 78.17 53.66"/><polygon class="uuid-1682be8f-2651-4879-860a-7e9d873eae81" points="89.25 53.65 80.09 53.66 81.11 45.83 89.83 45.81 89.25 53.65"/><polygon class="uuid-1682be8f-2651-4879-860a-7e9d873eae81" points="100.33 53.64 91.17 53.65 91.66 45.81 100.39 45.8 100.33 53.64"/><polygon class="uuid-1682be8f-2651-4879-860a-7e9d873eae81" points="111.41 53.63 102.25 53.64 102.21 45.79 110.94 45.78 111.41 53.63"/><polygon class="uuid-1682be8f-2651-4879-860a-7e9d873eae81" points="122.49 53.62 113.33 53.63 112.76 45.78 121.49 45.76 122.49 53.62"/><polygon class="uuid-1682be8f-2651-4879-860a-7e9d873eae81" points="133.57 53.61 124.4 53.62 123.32 45.76 132.04 45.75 133.57 53.61"/><polygon class="uuid-1682be8f-2651-4879-860a-7e9d873eae81" points="76.79 63.33 67.09 63.34 68.64 55.51 77.91 55.5 76.79 63.33"/><polygon class="uuid-1682be8f-2651-4879-860a-7e9d873eae81" points="88.53 63.33 78.82 63.33 79.85 55.5 89.11 55.49 88.53 63.33"/><polygon class="uuid-1682be8f-2651-4879-860a-7e9d873eae81" points="100.26 63.33 90.56 63.33 91.05 55.49 100.31 55.48 100.26 63.33"/><polygon class="uuid-1682be8f-2651-4879-860a-7e9d873eae81" points="111.99 63.32 102.29 63.33 102.25 55.48 111.52 55.47 111.99 63.32"/><polygon class="uuid-1682be8f-2651-4879-860a-7e9d873eae81" points="123.72 63.32 114.02 63.32 113.46 55.47 122.72 55.46 123.72 63.32"/><polygon class="uuid-1682be8f-2651-4879-860a-7e9d873eae81" points="135.45 63.32 125.75 63.32 124.66 55.46 133.92 55.45 135.45 63.32"/></svg>