<?xml version="1.0" encoding="UTF-8"?><svg id="uuid-16169da8-8dbd-4c29-8877-35360aaec40e" xmlns="http://www.w3.org/2000/svg" width="200" height="200" viewBox="0 0 200 200"><defs><style>.uuid-e5efd822-0dea-407d-8bc8-a997a069792d{fill:#b7133a;}.uuid-e5efd822-0dea-407d-8bc8-a997a069792d,.uuid-526a8360-528c-41eb-9c5b-6ce7cc8c94cd,.uuid-f3e8c37d-d820-473f-9eb4-3f973df0c681,.uuid-99fd3a68-615a-4ab2-bb21-ebf6339cf42f,.uuid-af3bc88a-5c62-4383-983d-2ff61ab44cdc,.uuid-04dcb559-dac6-4c6f-ba8e-fcc3cf74142a{stroke-width:0px;}.uuid-f3e8c37d-d820-473f-9eb4-3f973df0c681{fill:#f2f2f0;}.uuid-99fd3a68-615a-4ab2-bb21-ebf6339cf42f{fill:#15487a;}.uuid-af3bc88a-5c62-4383-983d-2ff61ab44cdc{fill:#aadce1;}.uuid-db7521ef-f325-4438-bff6-8ab31ce94966{fill:none;stroke:#000;stroke-linecap:round;stroke-width:2px;}.uuid-04dcb559-dac6-4c6f-ba8e-fcc3cf74142a{fill:#f26d6d;}</style></defs><path class="uuid-f3e8c37d-d820-473f-9eb4-3f973df0c681" d="M135.08,72.27H53.39v87.05h9.88v-2.65c0-.55.45-1,1-1h4.76v-27.54c0-.55.45-1,1-1h16.78c.55,0,1,.45,1,1v27.54h5.63c.55,0,1,.45,1,1v2.65h40.63v-87.05Z"/><polygon class="uuid-e5efd822-0dea-407d-8bc8-a997a069792d" points="129.63 40.68 59.81 40.68 50.44 70.27 139 70.27 129.63 40.68"/><path class="uuid-526a8360-528c-41eb-9c5b-6ce7cc8c94cd" d="M137.08,72.27h3.29c.32,0,.62-.15.81-.41.19-.26.24-.59.15-.89l-10-31.59c-.13-.42-.52-.7-.95-.7H59.08c-.44,0-.82.28-.95.7l-10,31.59c-.1.3-.04.64.15.89.19.26.49.41.81.41h2.32v88.05c0,.55.45,1,1,1h83.61c.55,0,1-.45,1-1l.08-88.05Z"/><path class="uuid-f3e8c37d-d820-473f-9eb4-3f973df0c681" d="M135.08,159.32h-40.63v-2.65c0-.55-.45-1-1-1h-5.63v-27.54c0-.55-.45-1-1-1h-16.78c-.55,0-1,.45-1,1v27.54h-4.76c-.55,0-1,.45-1,1v2.65h-9.88v-87.05h81.69v87.05Z"/><polygon class="uuid-e5efd822-0dea-407d-8bc8-a997a069792d" points="129.63 40.68 139 70.27 50.44 70.27 59.81 40.68 129.63 40.68"/><rect class="uuid-f3e8c37d-d820-473f-9eb4-3f973df0c681" x="65.28" y="157.67" width="27.18" height="1.65"/><path class="uuid-f3e8c37d-d820-473f-9eb4-3f973df0c681" d="M88.88,111.18c0,.55-.45,1-1,1h-20.94c-.55,0-1-.45-1-1v-3.1c0-.55.45-1,1-1h.78v-22.48c0-.55.45-1,1-1h17.11c.55,0,1,.45,1,1v22.48h1.04c.55,0,1,.45,1,1v3.1Z"/><rect class="uuid-af3bc88a-5c62-4383-983d-2ff61ab44cdc" x="69.72" y="92.4" width="15.11" height="14.69"/><rect class="uuid-af3bc88a-5c62-4383-983d-2ff61ab44cdc" x="69.72" y="85.61" width="15.11" height="4.79"/><rect class="uuid-f3e8c37d-d820-473f-9eb4-3f973df0c681" x="67.94" y="109.09" width="18.94" height="1.1"/><rect class="uuid-04dcb559-dac6-4c6f-ba8e-fcc3cf74142a" x="71.04" y="129.13" width="14.78" height="26.54"/><path class="uuid-04dcb559-dac6-4c6f-ba8e-fcc3cf74142a" d="M80.6,145.16h-4.15c-.55,0-1-.45-1-1s.45-1,1-1h4.15c.55,0,1,.45,1,1s-.45,1-1,1Z"/><path class="uuid-526a8360-528c-41eb-9c5b-6ce7cc8c94cd" d="M87.88,107.09h-1.04v-22.48c0-.55-.45-1-1-1h-17.11c-.55,0-1,.45-1,1v22.48h-.78c-.55,0-1,.45-1,1v3.1c0,.55.45,1,1,1h20.94c.55,0,1-.45,1-1v-3.1c0-.55-.45-1-1-1Z"/><rect class="uuid-af3bc88a-5c62-4383-983d-2ff61ab44cdc" x="69.72" y="92.4" width="15.11" height="14.69"/><rect class="uuid-af3bc88a-5c62-4383-983d-2ff61ab44cdc" x="69.72" y="85.61" width="15.11" height="4.79"/><rect class="uuid-f3e8c37d-d820-473f-9eb4-3f973df0c681" x="67.94" y="109.09" width="18.94" height="1.1"/><path class="uuid-f3e8c37d-d820-473f-9eb4-3f973df0c681" d="M121.97,111.18c0,.55-.45,1-1,1h-20.94c-.55,0-1-.45-1-1v-3.1c0-.55.45-1,1-1h.78v-22.48c0-.55.45-1,1-1h17.11c.55,0,1,.45,1,1v22.48h1.04c.55,0,1,.45,1,1v3.1Z"/><rect class="uuid-af3bc88a-5c62-4383-983d-2ff61ab44cdc" x="102.81" y="92.4" width="15.11" height="14.69"/><rect class="uuid-af3bc88a-5c62-4383-983d-2ff61ab44cdc" x="102.81" y="85.61" width="15.11" height="4.79"/><rect class="uuid-f3e8c37d-d820-473f-9eb4-3f973df0c681" x="101.03" y="109.09" width="18.94" height="1.1"/><path class="uuid-526a8360-528c-41eb-9c5b-6ce7cc8c94cd" d="M120.97,107.09h-1.04v-22.48c0-.55-.45-1-1-1h-17.11c-.55,0-1,.45-1,1v22.48h-.78c-.55,0-1,.45-1,1v3.1c0,.55.45,1,1,1h20.94c.55,0,1-.45,1-1v-3.1c0-.55-.45-1-1-1Z"/><rect class="uuid-af3bc88a-5c62-4383-983d-2ff61ab44cdc" x="102.81" y="92.4" width="15.11" height="14.69"/><rect class="uuid-af3bc88a-5c62-4383-983d-2ff61ab44cdc" x="102.81" y="85.61" width="15.11" height="4.79"/><rect class="uuid-f3e8c37d-d820-473f-9eb4-3f973df0c681" x="101.03" y="109.09" width="18.94" height="1.1"/><path class="uuid-f3e8c37d-d820-473f-9eb4-3f973df0c681" d="M121.97,150.26c0,.55-.45,1-1,1h-20.94c-.55,0-1-.45-1-1v-3.1c0-.55.45-1,1-1h.78v-22.48c0-.55.45-1,1-1h17.11c.55,0,1,.45,1,1v22.48h1.04c.55,0,1,.45,1,1v3.1Z"/><rect class="uuid-af3bc88a-5c62-4383-983d-2ff61ab44cdc" x="102.81" y="131.48" width="15.11" height="14.69"/><rect class="uuid-af3bc88a-5c62-4383-983d-2ff61ab44cdc" x="102.81" y="124.69" width="15.11" height="4.79"/><rect class="uuid-f3e8c37d-d820-473f-9eb4-3f973df0c681" x="101.03" y="148.17" width="18.94" height="1.1"/><path class="uuid-526a8360-528c-41eb-9c5b-6ce7cc8c94cd" d="M120.97,146.17h-1.04v-22.48c0-.55-.45-1-1-1h-17.11c-.55,0-1,.45-1,1v22.48h-.78c-.55,0-1,.45-1,1v3.1c0,.55.45,1,1,1h20.94c.55,0,1-.45,1-1v-3.1c0-.55-.45-1-1-1Z"/><rect class="uuid-af3bc88a-5c62-4383-983d-2ff61ab44cdc" x="102.81" y="131.48" width="15.11" height="14.69"/><rect class="uuid-af3bc88a-5c62-4383-983d-2ff61ab44cdc" x="102.81" y="124.69" width="15.11" height="4.79"/><rect class="uuid-f3e8c37d-d820-473f-9eb4-3f973df0c681" x="101.03" y="148.17" width="18.94" height="1.1"/><rect class="uuid-f3e8c37d-d820-473f-9eb4-3f973df0c681" x="65.28" y="157.67" width="27.18" height="1.65"/><rect class="uuid-04dcb559-dac6-4c6f-ba8e-fcc3cf74142a" x="71.04" y="129.13" width="14.78" height="26.54"/><path class="uuid-526a8360-528c-41eb-9c5b-6ce7cc8c94cd" d="M76.45,145.16h4.15c.55,0,1-.45,1-1s-.45-1-1-1h-4.15c-.55,0-1,.45-1,1s.45,1,1,1Z"/><line class="uuid-db7521ef-f325-4438-bff6-8ab31ce94966" x1="74.92" y1="61.81" x2="74.21" y2="66.67"/><line class="uuid-db7521ef-f325-4438-bff6-8ab31ce94966" x1="112.46" y1="61.8" x2="113.07" y2="66.67"/><path class="uuid-526a8360-528c-41eb-9c5b-6ce7cc8c94cd" d="M74.19,43.31c-.66,0-1.28.54-1.41,1.19l-3.51,19.03c-.12.66.4,1.2,1.18,1.2h46.39c.77,0,1.31-.54,1.2-1.2l-3.12-19.04c-.11-.66-.73-1.19-1.38-1.19h-39.35Z"/><polygon class="uuid-99fd3a68-615a-4ab2-bb21-ebf6339cf42f" points="82.02 53.09 73.05 53.09 74.4 45.16 82.82 45.16 82.02 53.09"/><polygon class="uuid-99fd3a68-615a-4ab2-bb21-ebf6339cf42f" points="92.87 53.09 83.9 53.09 84.58 45.16 93 45.16 92.87 53.09"/><polygon class="uuid-99fd3a68-615a-4ab2-bb21-ebf6339cf42f" points="103.71 53.09 94.74 53.09 94.77 45.16 103.19 45.15 103.71 53.09"/><polygon class="uuid-99fd3a68-615a-4ab2-bb21-ebf6339cf42f" points="114.56 53.09 105.59 53.09 104.95 45.15 113.37 45.15 114.56 53.09"/><polygon class="uuid-99fd3a68-615a-4ab2-bb21-ebf6339cf42f" points="81.03 62.88 71.38 62.88 72.73 54.95 81.83 54.95 81.03 62.88"/><polygon class="uuid-99fd3a68-615a-4ab2-bb21-ebf6339cf42f" points="92.7 62.88 83.05 62.88 83.74 54.95 92.84 54.95 92.7 62.88"/><polygon class="uuid-99fd3a68-615a-4ab2-bb21-ebf6339cf42f" points="104.36 62.88 94.72 62.88 94.74 54.95 103.84 54.95 104.36 62.88"/><polygon class="uuid-99fd3a68-615a-4ab2-bb21-ebf6339cf42f" points="116.03 62.88 106.38 62.88 105.74 54.95 114.84 54.95 116.03 62.88"/></svg>